<svg id="Calque_2" data-name="Calque 2" xmlns="http://www.w3.org/2000/svg" viewBox="0 0 1350 954"><defs><style>.cls-1,.cls-2{fill:none;stroke:#000;stroke-width:27px;}.cls-2{stroke-linecap:round;}</style></defs><rect class="cls-1" x="53.63" y="292.12" width="1238.78" height="371.43" rx="32.06"/><rect class="cls-1" x="120.98" y="355.39" width="1112.24" height="244.9" rx="25.01"/><rect class="cls-1" x="186.29" y="434.98" width="989.8" height="87.76" rx="29.8"/><line class="cls-1" x1="441" y1="432" x2="441" y2="531"/><line class="cls-1" x1="648" y1="432" x2="648" y2="522"/><line class="cls-1" x1="945" y1="432" x2="945" y2="522"/><line class="cls-2" x1="162" y1="675" x2="162" y2="900"/><line class="cls-2" x1="423" y1="675" x2="423" y2="900"/><line class="cls-2" x1="684" y1="675" x2="684" y2="900"/><line class="cls-2" x1="945" y1="675" x2="945" y2="900"/><line class="cls-2" x1="1206" y1="675" x2="1206" y2="900"/><path class="cls-2" d="M407.72,99H837a0,0,0,0,1,0,0V288a0,0,0,0,1,0,0H378a0,0,0,0,1,0,0V128.72A29.72,29.72,0,0,1,407.72,99Z"/><path class="cls-2" d="M924.59,45H1079.5a90.5,90.5,0,0,1,90.5,90.5V288a0,0,0,0,1,0,0H837a0,0,0,0,1,0,0V132.59A87.59,87.59,0,0,1,924.59,45Z"/></svg>